<svg width="415" height="250" viewBox="0 0 415 250" fill="none" xmlns="http://www.w3.org/2000/svg">
<path d="M167.486 82.8428V0.0470431H196.872V68.7299H227.093V82.8428H167.486Z" fill="white"/>
<path d="M232.396 82.8428V0.0470431H260.78V82.8428H232.396Z" fill="white"/>
<path d="M284.282 82.8428L266.166 0H294.133L304.902 56.3576L314.503 0H342.469L324.354 82.8428H284.282Z" fill="white"/>
<path d="M349.358 82.8428V0.0470431H408.13V16.0417H379.245V32.1775H406.961V47.7487H379.245V66.7071H410.05V82.8428H349.358Z" fill="white"/>
<path d="M69.5843 165.699L53.8061 82.903H82.5241L90.622 135.168L98.8867 82.903H126.269L134.116 135.168L141.964 82.903H171.016L154.987 165.699H119.757L112.411 125.853L105.398 165.699H69.5843Z" fill="white"/>
<path d="M213.135 166.452C201.391 166.452 192.403 164.46 186.17 160.477C179.992 156.463 176.903 150.676 176.903 143.118V103.79C176.903 96.7023 179.964 91.3238 186.086 87.6544C192.264 83.985 201.28 82.1504 213.135 82.1504C224.989 82.1504 233.977 83.985 240.099 87.6544C246.277 91.3238 249.366 96.7023 249.366 103.79V143.118C249.366 150.676 246.249 156.463 240.016 160.477C233.838 164.46 224.878 166.452 213.135 166.452ZM213.385 151.21C217.837 151.21 220.064 148.779 220.064 143.918V103.508C220.064 99.4308 217.893 97.3923 213.552 97.3923C208.654 97.3923 206.205 99.4779 206.205 103.649V144.012C206.205 146.584 206.762 148.434 207.875 149.563C208.988 150.661 210.825 151.21 213.385 151.21Z" fill="white"/>
<path d="M259.511 165.699V82.903H304.592C312.105 82.903 317.782 83.8753 321.622 85.8197C325.462 87.7328 328.022 90.4299 329.302 93.9111C330.638 97.3609 331.306 101.422 331.306 106.095C331.306 110.611 330.276 114.218 328.217 116.915C326.214 119.612 322.401 121.478 316.78 122.513C321.399 123.046 324.627 124.348 326.464 126.418C328.356 128.456 329.302 131.107 329.302 134.368V165.699H300.334V133.286C300.334 130.871 299.443 129.382 297.663 128.817C295.937 128.221 293.127 127.923 289.231 127.923V165.699H259.511ZM289.398 113.575H296.494C300.557 113.575 302.588 111.082 302.588 106.095C302.588 102.865 302.143 100.748 301.252 99.7445C300.362 98.7409 298.692 98.2391 296.243 98.2391H289.398V113.575Z" fill="white"/>
<path d="M339.28 165.699V82.903H368.332V116.068L382.023 82.903H411.576L395.13 120.82L414.999 165.699H384.528L368.499 125.618V165.699H339.28Z" fill="white"/>
<path d="M35.3967 250C24.7665 250 16.1957 248.134 9.684 244.402C3.228 240.67 0 235.448 0 228.737V190.538C0 182.509 2.81059 176.362 8.43176 172.097C14.1086 167.831 23.3195 165.699 36.0645 165.699C43.0214 165.699 49.1992 166.42 54.5977 167.863C60.0519 169.305 64.3374 171.469 67.4541 174.355C70.5707 177.209 72.1291 180.815 72.1291 185.175V199.476H42.9101V187.245C42.9101 184.767 42.3536 183.105 41.2405 182.258C40.1274 181.38 38.4021 180.941 36.0645 180.941C33.3374 180.941 31.5008 181.505 30.5547 182.634C29.6085 183.732 29.1355 185.206 29.1355 187.056V228.501C29.1355 230.791 29.7199 232.406 30.8886 233.347C32.113 234.288 33.8383 234.758 36.0645 234.758C38.569 234.758 40.3222 234.178 41.324 233.017C42.3814 231.857 42.9101 230.352 42.9101 228.501V213.589H72.463V229.254C72.463 236.53 69.2072 241.814 62.6955 245.107C56.1839 248.369 47.0843 250 35.3967 250Z" fill="white"/>
<path d="M76.5403 249.247V166.452H121.621C129.134 166.452 134.811 167.424 138.651 169.368C142.492 171.281 145.052 173.978 146.332 177.46C147.668 180.909 148.335 184.971 148.335 189.644C148.335 194.16 147.306 197.767 145.247 200.464C143.243 203.161 139.431 205.027 133.809 206.062C138.429 206.595 141.657 207.896 143.493 209.966C145.386 212.005 146.332 214.655 146.332 217.917V249.247H117.363V216.835C117.363 214.42 116.473 212.93 114.692 212.366C112.967 211.77 110.156 211.472 106.26 211.472V249.247H76.5403ZM106.427 197.124H113.523C117.586 197.124 119.617 194.63 119.617 189.644C119.617 186.413 119.172 184.297 118.282 183.293C117.391 182.289 115.722 181.788 113.273 181.788H106.427V197.124Z" fill="white"/>
<path d="M151.845 249.247V166.452H210.617V182.446H181.731V198.582H209.448V214.153H181.731V233.112H212.537V249.247H151.845Z" fill="white"/>
<path d="M216.587 249.247L230.779 166.452H280.618L294.56 249.247H266.76L264.673 235.887H246.975L245.138 249.247H216.587ZM249.062 222.668H262.419L255.991 180.564H254.655L249.062 222.668Z" fill="white"/>
<path d="M305.498 249.247V182.352H288.051V166.452H352.332V182.352H334.884V249.247H305.498Z" fill="white"/>
<path d="M349.358 82.8428V0.0470431H408.13V16.0417H379.245V32.1775H406.961V47.7487H379.245V66.7071H410.05V82.8428H349.358Z" fill="white"/>
<path d="M354.308 249.187V166.391H413.08V182.386H384.195V198.522H411.911V214.093H384.195V233.051H415V249.187H354.308Z" fill="white"/>
<path d="M354.308 249.187V166.391H413.08V182.386H384.195V198.522H411.911V214.093H384.195V233.051H415V249.187H354.308Z" fill="white"/>
</svg>
